<svg width="33" height="34" viewBox="0 0 33 34" fill="none" xmlns="http://www.w3.org/2000/svg">
<mask id="mask0_249_2589" style="mask-type:alpha" maskUnits="userSpaceOnUse" x="0" y="0" width="33" height="34">
<rect y="0.390137" width="33" height="33" fill="#D9D9D9"/>
</mask>
<g mask="url(#mask0_249_2589)">
<path d="M27.4313 29.2651C24.5667 29.2651 21.7365 28.6407 18.9406 27.3917C16.1448 26.1427 13.601 24.3724 11.3094 22.0808C9.01771 19.7891 7.2474 17.2453 5.99844 14.4495C4.74948 11.6537 4.125 8.82347 4.125 5.95889C4.125 5.54639 4.2625 5.20264 4.5375 4.92764C4.8125 4.65264 5.15625 4.51514 5.56875 4.51514H11.1375C11.4583 4.51514 11.7448 4.62399 11.9969 4.8417C12.249 5.05941 12.3979 5.31722 12.4438 5.61514L13.3375 10.4276C13.3833 10.7943 13.3719 11.1037 13.3031 11.3558C13.2344 11.6078 13.1083 11.8256 12.925 12.0089L9.59063 15.3776C10.049 16.2256 10.5932 17.0448 11.2234 17.8354C11.8536 18.6261 12.5469 19.3881 13.3031 20.1214C14.0135 20.8318 14.7583 21.4907 15.5375 22.0979C16.3167 22.7052 17.1417 23.261 18.0125 23.7651L21.2437 20.5339C21.45 20.3276 21.7193 20.1729 22.0516 20.0698C22.3839 19.9667 22.7104 19.9381 23.0312 19.9839L27.775 20.9464C28.0958 21.0381 28.3594 21.2042 28.5656 21.4448C28.7719 21.6854 28.875 21.9547 28.875 22.2526V27.8214C28.875 28.2339 28.7375 28.5776 28.4625 28.8526C28.1875 29.1276 27.8438 29.2651 27.4313 29.2651Z" fill="#697699"/>
</g>
</svg>
