<svg width="200" height="200" viewBox="0 0 200 200" fill="none" xmlns="http://www.w3.org/2000/svg">
<mask id="mask0_249_5841" style="mask-type:alpha" maskUnits="userSpaceOnUse" x="0" y="0" width="200" height="200">
<rect width="200" height="200" fill="#D9D9D9"/>
</mask>
<g mask="url(#mask0_249_5841)">
<path d="M137.5 183.333V165.277C130 162.87 123.646 158.819 118.437 153.125C113.229 147.431 110.069 140.833 108.958 133.333H121.667C123.056 139.444 126.111 144.444 130.833 148.333C135.556 152.222 141.25 154.167 147.917 154.167H172.917C175.81 154.167 178.269 155.179 180.296 157.204C182.321 159.231 183.333 161.69 183.333 164.583V183.333H137.5ZM160.408 142.708C156.108 142.708 152.431 141.178 149.375 138.117C146.319 135.054 144.792 131.374 144.792 127.075C144.792 122.775 146.322 119.097 149.383 116.042C152.446 112.986 156.126 111.458 160.425 111.458C164.725 111.458 168.403 112.989 171.458 116.05C174.514 119.112 176.042 122.793 176.042 127.092C176.042 131.392 174.511 135.069 171.45 138.125C168.387 141.181 164.707 142.708 160.408 142.708ZM81.25 112.5C81.25 95 87.2916 80.2083 99.375 68.125C111.458 56.0416 126.25 50 143.75 50V62.5C129.722 62.5 117.882 67.3264 108.229 76.9791C98.5764 86.6319 93.75 98.4722 93.75 112.5H81.25ZM106.25 112.5C106.25 102.083 109.906 93.2291 117.219 85.9375C124.531 78.6458 133.375 75 143.75 75V87.5C136.806 87.5 130.903 89.9305 126.042 94.7916C121.181 99.6527 118.75 105.556 118.75 112.5H106.25ZM16.6666 88.5416V69.7916C16.6666 66.8986 17.7083 64.4389 19.7916 62.4125C21.875 60.3875 24.3055 59.375 27.0833 59.375H52.0833C58.75 59.375 64.4444 57.4305 69.1666 53.5416C73.8889 49.6527 76.9444 44.6527 78.3333 38.5416H91.0416C89.9305 46.0416 86.7708 52.6389 81.5625 58.3333C76.3541 64.0277 70 68.0784 62.5 70.4854V88.5416H16.6666ZM39.575 47.9166C35.275 47.9166 31.5972 46.3861 28.5416 43.325C25.4861 40.2625 23.9583 36.5819 23.9583 32.2833C23.9583 27.9833 25.4888 24.3055 28.55 21.25C31.6125 18.1944 35.293 16.6666 39.5916 16.6666C43.8916 16.6666 47.5694 18.1972 50.625 21.2583C53.6805 24.3208 55.2083 28.0013 55.2083 32.3C55.2083 36.6 53.6777 40.2777 50.6166 43.3333C47.5541 46.3889 43.8736 47.9166 39.575 47.9166Z" fill="white"/>
</g>
</svg>
