<svg width="45" height="44" viewBox="0 0 45 44" fill="none" xmlns="http://www.w3.org/2000/svg">
<mask id="mask0_249_770" style="mask-type:alpha" maskUnits="userSpaceOnUse" x="0" y="0" width="45" height="44">
<rect x="0.5" width="44" height="44" fill="#D9D9D9"/>
</mask>
<g mask="url(#mask0_249_770)">
<path d="M4.16675 44V36.6667H40.8334V44H4.16675ZM7.83341 33V25.2083L28.3667 4.72082C28.7029 4.38471 29.0924 4.12499 29.5355 3.94166C29.9786 3.75832 30.4445 3.66666 30.9334 3.66666C31.4223 3.66666 31.8959 3.75832 32.3542 3.94166C32.8126 4.12499 33.2251 4.39999 33.5918 4.76666L36.1126 7.33332C36.4793 7.66943 36.7466 8.06666 36.9147 8.52499C37.0827 8.98332 37.1667 9.45693 37.1667 9.94582C37.1667 10.4042 37.0827 10.8549 36.9147 11.2979C36.7466 11.741 36.4793 12.1458 36.1126 12.5125L15.6251 33H7.83341ZM30.9334 12.4667L33.5001 9.89999L30.9334 7.33332L28.3667 9.89999L30.9334 12.4667Z" fill="white"/>
</g>
</svg>
