<svg width="34" height="34" viewBox="0 0 34 34" fill="none" xmlns="http://www.w3.org/2000/svg">
<mask id="mask0_249_881" style="mask-type:alpha" maskUnits="userSpaceOnUse" x="0" y="0" width="34" height="34">
<rect x="0.5" y="0.5" width="33" height="33" fill="#D9D9D9"/>
</mask>
<g mask="url(#mask0_249_881)">
<path d="M6 28C5.24375 28 4.59635 27.7307 4.05781 27.1922C3.51927 26.6536 3.25 26.0063 3.25 25.25V8.75C3.25 7.99375 3.51927 7.34635 4.05781 6.80781C4.59635 6.26927 5.24375 6 6 6H28C28.7563 6 29.4036 6.26927 29.9422 6.80781C30.4807 7.34635 30.75 7.99375 30.75 8.75V25.25C30.75 26.0063 30.4807 26.6536 29.9422 27.1922C29.4036 27.7307 28.7563 28 28 28H6ZM17 18.375L28 11.5V8.75L17 15.625L6 8.75V11.5L17 18.375Z" fill="#697699"/>
</g>
</svg>
