<svg width="200" height="200" viewBox="0 0 200 200" fill="none" xmlns="http://www.w3.org/2000/svg">
<mask id="mask0_249_5844" style="mask-type:alpha" maskUnits="userSpaceOnUse" x="0" y="0" width="200" height="200">
<rect width="200" height="200" fill="#D9D9D9"/>
</mask>
<g mask="url(#mask0_249_5844)">
<path d="M114.583 182.5L105.833 173.75L135.417 144.167L55.8333 64.5834L26.25 94.1667L17.5 85.4167L29.1667 73.3334L17.5 61.6667L35.2083 43.9584L26.4583 35.2084L35.2083 26.4584L44.1667 35.0001L61.6667 17.5001L73.3333 29.1667L85.4167 17.5001L94.1667 26.2501L64.5833 55.8334L144.167 135.417L173.75 105.833L182.5 114.583L170.833 126.667L182.5 138.333L164.583 156.25L173.333 165L164.583 173.75L155.833 165L138.333 182.5L126.667 170.833L114.583 182.5Z" fill="white"/>
</g>
</svg>
