<svg width="200" height="200" viewBox="0 0 200 200" fill="none" xmlns="http://www.w3.org/2000/svg">
<mask id="mask0_249_5847" style="mask-type:alpha" maskUnits="userSpaceOnUse" x="0" y="0" width="200" height="200">
<rect width="200" height="200" fill="#D9D9D9"/>
</mask>
<g mask="url(#mask0_249_5847)">
<path d="M33.3333 175V25H166.667V106.25H45.8333V128.125H93.75V140.625H45.8333V162.5H93.75V175H33.3333ZM132.083 175L108.333 151.25L117.292 142.292L132.083 157.083L163.75 125.417L172.708 134.375L132.083 175ZM45.8333 93.75H93.75V71.875H45.8333V93.75ZM106.25 93.75H154.167V71.875H106.25V93.75ZM45.8333 59.375H93.75V37.5H45.8333V59.375ZM106.25 59.375H154.167V37.5H106.25V59.375Z" fill="white"/>
</g>
</svg>
