<svg width="33" height="34" viewBox="0 0 33 34" fill="none" xmlns="http://www.w3.org/2000/svg">
<mask id="mask0_249_2581" style="mask-type:alpha" maskUnits="userSpaceOnUse" x="0" y="0" width="33" height="34">
<rect y="0.390137" width="33" height="33" fill="#D9D9D9"/>
</mask>
<g mask="url(#mask0_249_2581)">
<path d="M8.04375 23.9026C9.2125 23.0089 10.5188 22.3042 11.9625 21.7886C13.4063 21.2729 14.9187 21.0151 16.5 21.0151C18.0813 21.0151 19.5938 21.2729 21.0375 21.7886C22.4813 22.3042 23.7875 23.0089 24.9562 23.9026C25.7583 22.9631 26.3828 21.8974 26.8297 20.7058C27.2766 19.5141 27.5 18.2422 27.5 16.8901C27.5 13.8422 26.4286 11.2469 24.2859 9.1042C22.1432 6.96149 19.5479 5.89014 16.5 5.89014C13.4521 5.89014 10.8568 6.96149 8.71406 9.1042C6.57135 11.2469 5.5 13.8422 5.5 16.8901C5.5 18.2422 5.72344 19.5141 6.17031 20.7058C6.61719 21.8974 7.24167 22.9631 8.04375 23.9026ZM16.5 18.2651C15.1479 18.2651 14.0078 17.8011 13.0797 16.8729C12.1516 15.9448 11.6875 14.8047 11.6875 13.4526C11.6875 12.1006 12.1516 10.9604 13.0797 10.0323C14.0078 9.1042 15.1479 8.64014 16.5 8.64014C17.8521 8.64014 18.9922 9.1042 19.9203 10.0323C20.8484 10.9604 21.3125 12.1006 21.3125 13.4526C21.3125 14.8047 20.8484 15.9448 19.9203 16.8729C18.9922 17.8011 17.8521 18.2651 16.5 18.2651ZM16.5 30.6401C14.5979 30.6401 12.8104 30.2792 11.1375 29.5573C9.46458 28.8354 8.00938 27.8558 6.77187 26.6183C5.53437 25.3808 4.55469 23.9256 3.83281 22.2526C3.11094 20.5797 2.75 18.7922 2.75 16.8901C2.75 14.9881 3.11094 13.2006 3.83281 11.5276C4.55469 9.85472 5.53437 8.39951 6.77187 7.16201C8.00938 5.92451 9.46458 4.94482 11.1375 4.22295C12.8104 3.50107 14.5979 3.14014 16.5 3.14014C18.4021 3.14014 20.1896 3.50107 21.8625 4.22295C23.5354 4.94482 24.9906 5.92451 26.2281 7.16201C27.4656 8.39951 28.4453 9.85472 29.1672 11.5276C29.8891 13.2006 30.25 14.9881 30.25 16.8901C30.25 18.7922 29.8891 20.5797 29.1672 22.2526C28.4453 23.9256 27.4656 25.3808 26.2281 26.6183C24.9906 27.8558 23.5354 28.8354 21.8625 29.5573C20.1896 30.2792 18.4021 30.6401 16.5 30.6401Z" fill="#697699"/>
</g>
</svg>
