<svg width="34" height="34" viewBox="0 0 34 34" fill="none" xmlns="http://www.w3.org/2000/svg">
<mask id="mask0_249_910" style="mask-type:alpha" maskUnits="userSpaceOnUse" x="0" y="0" width="34" height="34">
<rect x="0.5" y="0.5" width="33" height="33" fill="#D9D9D9"/>
</mask>
<g mask="url(#mask0_249_910)">
<path d="M8.75 30.75C7.99375 30.75 7.34635 30.4807 6.80781 29.9422C6.26927 29.4036 6 28.7563 6 28V14.25C6 13.4937 6.26927 12.8464 6.80781 12.3078C7.34635 11.7693 7.99375 11.5 8.75 11.5H10.125V8.75C10.125 6.84792 10.7953 5.22656 12.1359 3.88594C13.4766 2.54531 15.0979 1.875 17 1.875C18.9021 1.875 20.5234 2.54531 21.8641 3.88594C23.2047 5.22656 23.875 6.84792 23.875 8.75V11.5H25.25C26.0063 11.5 26.6536 11.7693 27.1922 12.3078C27.7307 12.8464 28 13.4937 28 14.25V28C28 28.7563 27.7307 29.4036 27.1922 29.9422C26.6536 30.4807 26.0063 30.75 25.25 30.75H8.75ZM17 23.875C17.7563 23.875 18.4036 23.6057 18.9422 23.0672C19.4807 22.5286 19.75 21.8813 19.75 21.125C19.75 20.3687 19.4807 19.7214 18.9422 19.1828C18.4036 18.6443 17.7563 18.375 17 18.375C16.2437 18.375 15.5964 18.6443 15.0578 19.1828C14.5193 19.7214 14.25 20.3687 14.25 21.125C14.25 21.8813 14.5193 22.5286 15.0578 23.0672C15.5964 23.6057 16.2437 23.875 17 23.875ZM12.875 11.5H21.125V8.75C21.125 7.60417 20.724 6.63021 19.9219 5.82812C19.1198 5.02604 18.1458 4.625 17 4.625C15.8542 4.625 14.8802 5.02604 14.0781 5.82812C13.276 6.63021 12.875 7.60417 12.875 8.75V11.5Z" fill="#697699"/>
</g>
</svg>
